<mxfile host="app.diagrams.net" modified="2022-04-08T12:49:46.167Z" agent="5.0 (Windows NT 10.0; Win64; x64) AppleWebKit/537.36 (KHTML, like Gecko) Chrome/100.0.4896.75 Safari/537.36" etag="dA7LkIH7QsN4u2Uctuhs" version="17.4.1" type="github">
  <diagram id="zdvHLQYBRxovt0Lp_ghk" name="Page-1">
    <mxGraphModel dx="1185" dy="628" grid="1" gridSize="10" guides="1" tooltips="1" connect="1" arrows="1" fold="1" page="1" pageScale="1" pageWidth="827" pageHeight="1169" math="0" shadow="0">
      <root>
        <mxCell id="0" />
        <mxCell id="1" parent="0" />
        <mxCell id="Ncpa09FOgLPeIqfQ4_f8-1" value="Pool" style="swimlane;html=1;childLayout=stackLayout;resizeParent=1;resizeParentMax=0;horizontal=0;startSize=20;horizontalStack=0;" vertex="1" parent="1">
          <mxGeometry x="230" y="290" width="480" height="480" as="geometry" />
        </mxCell>
        <mxCell id="Ncpa09FOgLPeIqfQ4_f8-2" value="Cliente" style="swimlane;html=1;startSize=20;horizontal=0;" vertex="1" parent="Ncpa09FOgLPeIqfQ4_f8-1">
          <mxGeometry x="20" width="460" height="120" as="geometry" />
        </mxCell>
        <mxCell id="Ncpa09FOgLPeIqfQ4_f8-6" value="Solicita o OrÃ§amento pelo Site" style="points=[[0.25,0,0],[0.5,0,0],[0.75,0,0],[1,0.25,0],[1,0.5,0],[1,0.75,0],[0.75,1,0],[0.5,1,0],[0.25,1,0],[0,0.75,0],[0,0.5,0],[0,0.25,0]];shape=mxgraph.bpmn.task;whiteSpace=wrap;rectStyle=rounded;size=10;taskMarker=abstract;fontFamily=Times New Roman;" vertex="1" parent="Ncpa09FOgLPeIqfQ4_f8-2">
          <mxGeometry x="64" y="40" width="100" height="55" as="geometry" />
        </mxCell>
        <mxCell id="Ncpa09FOgLPeIqfQ4_f8-10" style="edgeStyle=orthogonalEdgeStyle;rounded=0;orthogonalLoop=1;jettySize=auto;html=1;exitX=1;exitY=0.5;exitDx=0;exitDy=0;exitPerimeter=0;entryX=0.5;entryY=0;entryDx=0;entryDy=0;entryPerimeter=0;" edge="1" parent="Ncpa09FOgLPeIqfQ4_f8-2" source="Ncpa09FOgLPeIqfQ4_f8-7" target="Ncpa09FOgLPeIqfQ4_f8-6">
          <mxGeometry relative="1" as="geometry" />
        </mxCell>
        <mxCell id="Ncpa09FOgLPeIqfQ4_f8-7" value="" style="points=[[0.145,0.145,0],[0.5,0,0],[0.855,0.145,0],[1,0.5,0],[0.855,0.855,0],[0.5,1,0],[0.145,0.855,0],[0,0.5,0]];shape=mxgraph.bpmn.event;html=1;verticalLabelPosition=bottom;labelBackgroundColor=#ffffff;verticalAlign=top;align=center;perimeter=ellipsePerimeter;outlineConnect=0;aspect=fixed;outline=standard;symbol=general;strokeColor=#00CC00;fillColor=#00CC00;" vertex="1" parent="Ncpa09FOgLPeIqfQ4_f8-2">
          <mxGeometry x="30" y="10" width="30" height="30" as="geometry" />
        </mxCell>
        <mxCell id="Ncpa09FOgLPeIqfQ4_f8-3" value="Financeiro" style="swimlane;html=1;startSize=20;horizontal=0;" vertex="1" parent="Ncpa09FOgLPeIqfQ4_f8-1">
          <mxGeometry x="20" y="120" width="460" height="120" as="geometry" />
        </mxCell>
        <mxCell id="Ncpa09FOgLPeIqfQ4_f8-4" value="Lane 3" style="swimlane;html=1;startSize=20;horizontal=0;" vertex="1" parent="Ncpa09FOgLPeIqfQ4_f8-1">
          <mxGeometry x="20" y="240" width="460" height="120" as="geometry" />
        </mxCell>
        <mxCell id="Ncpa09FOgLPeIqfQ4_f8-5" value="Lane 3" style="swimlane;html=1;startSize=20;horizontal=0;" vertex="1" parent="Ncpa09FOgLPeIqfQ4_f8-1">
          <mxGeometry x="20" y="360" width="460" height="120" as="geometry" />
        </mxCell>
      </root>
    </mxGraphModel>
  </diagram>
</mxfile>
